<svg xmlns="http://www.w3.org/2000/svg" xmlns:xlink="http://www.w3.org/1999/xlink" fill="none" version="1.1" width="120" height="120" viewBox="0 0 120 120"><defs><mask id="master_svg0_16_2653"><g><rect x="0" y="0" width="120" height="120" rx="60" fill="#FFFFFF" fill-opacity="1"/></g></mask></defs><g><g mask="url(#master_svg0_16_2653)"><g><g><rect x="0" y="0" width="120" height="120" rx="0" fill="#66CC66" fill-opacity="1"/></g><g><g><g><path d="M-40,117.99601184082032Q-39.9683899,117.81901184082031,-39.9051697,117.4970118408203C-38.71031,111.46501184082031,-25.3961,53.233201840820314,39.0758,86.75261184082031Q55.102199999999996,91.81651184082031,61.203,91.6964118408203C67.19,91.5826118408203,69.352,79.62131184082031,71.893,73.22971184082031C74.435,66.83820184082032,79.878,65.64330184082031,81.193,66.62320184082031Q82.508,67.60320184082032,80.864,72.41421184082031Q85.871,59.738601840820316,93.69800000000001,61.951301840820314Q96.34700000000001,62.697301840820316,95,67.50200184082031Q99.65299999999999,56.24250184082031,107.196,58.37300084082031Q110.61600000000001,59.34030184082031,108.517,66.91410184082031Q112.601,64.82150184082032,114.434,68.0963118408203C116.70400000000001,72.15501184082031,103.845,97.0954118408203,98.18700000000001,105.65501184082032C91.34,116.01101184082032,71.653,131.48701184082032,56.2338,131.41801184082033C38.089600000000004,131.3420118408203,-10.1221,98.41671184082031,-39.99367798,117.99601184082032L-40,117.99601184082032Z" fill="#ECC19C" fill-opacity="1"/></g><g><path d="M62.221003388671875,94.9459002993164Q58.69930338867187,98.9097992993164,60.86799638867188,101.1159992993164Q64.29400338867188,104.59296929931641,73.30897338867187,104.34699929931641Q78.29097338867187,99.7316992993164,74.28297338867188,95.7803992993164Q72.17197338867187,93.7005002993164,62.221003388671875,94.9459002993164Z" fill="#F0D0B4" fill-opacity="1"/></g><g><path d="M21.317401885986328,106.23700034179687Q21.734599885986327,106.09200034179688,22.531201885986327,105.91500034179688C23.32780188598633,105.70600034179688,24.510001885986327,105.45300034179688,26.02730188598633,105.21900034179687C27.544601885986328,104.97300034179688,29.403201885986327,104.78900034179688,31.546401885986327,104.61900034179688C33.68960188598633,104.54300034179687,36.117201885986326,104.36600034179688,38.753501885986324,104.58100034179688C41.40240188598633,104.61200034179687,44.24100188598633,105.02300034179687,47.25660188598633,105.41500034179688C48.77390188598633,105.54800034179688,50.27860188598633,105.97800034179687,51.84010188598633,106.29400034179687C53.38270188598633,106.64200034179687,54.96320188598633,106.99600034179687,56.56270188598633,107.36200034179687C58.17480188598633,107.78600034179688,59.76160188598633,108.07000034179687,61.367001885986326,108.24700034179688C62.998001885986326,108.37400034179687,64.65500188598634,108.44300034179687,66.28600188598634,108.21600034179687C69.52900188598633,107.84300034179688,72.79800188598634,106.53400034179688,74.87100188598633,104.06200034179687C75.91400188598632,102.86100034179688,76.67300188598634,101.40100034179687,76.91300188598632,99.87710034179688C76.92600188598632,99.52940034179687,77.02100188598632,99.03630034179687,76.97600188598634,98.80870034179688C76.94500188598633,98.61270034179688,76.95100188598633,98.32820034179687,76.88800188598633,98.20810034179688C76.83100188598632,98.08800034179687,76.78700188598633,97.96790034179688,76.74900188598633,97.84140034179687C76.45800188598633,97.26610034179687,75.92700188598633,96.75410034179687,75.31400188598633,96.31780034179687C72.65900188598633,94.67410034179687,69.19400188598632,94.18730034179687,66.03900188598632,93.98500034179688C65.24300188598633,93.94710034179687,64.44600188598633,93.92810034179688,63.65600188598633,93.93440034179687C62.78400188598633,93.92810034179688,62.044001885986326,93.90280034179688,61.22200188598633,93.83960034179688C59.565601885986325,93.66260034179687,58.01670188598633,93.38440034179688,56.53100188598633,93.04300034179687C53.55970188598633,92.34760034179688,50.82860188598633,91.46250034179687,48.350301885986326,90.56480034179688C43.38120188598633,88.77570034179688,39.41730188598633,86.87910034179687,36.635601885986325,85.58940034179687Q33.879201885986326,84.24909934179688,32.298701885986326,83.48410034179688Q33.92980188598633,84.12899734179688,36.78100188598633,85.24800034179688C39.61960188598633,86.39230034179687,43.97550188598633,87.55550034179687,48.74230188598633,89.42050034179688C51.22690188598633,90.21710034179688,53.90110188598633,91.12750034179687,56.81550188598633,91.69010034179688C58.27590188598633,91.97460034179687,59.78060188598633,92.17690034179688,61.273001885986325,92.29070034179688C62.03100188598633,92.31600034179688,62.89100188598633,92.31600034179688,63.62400188598633,92.32860034179687C64.44600188598633,92.30970034179687,65.28100188598633,92.31600034179688,66.11500188598633,92.34760034179688C69.44700188598634,92.54990034179687,72.98700188598633,92.89760034179687,76.28700188598633,94.85110034179688C77.08400188598632,95.40110034179688,77.85500188598633,96.08390034179688,78.36700188598633,97.06380034179688C78.48100188598633,97.34830034179687,78.58200188598633,97.63280034179688,78.67100188598633,97.92360034179687C78.75300188598632,98.20810034179688,78.74000188598633,98.37250034179688,78.77200188598633,98.60640034179687C78.84800188598632,99.23860034179688,78.73400188598633,99.61790034179688,78.71500188598633,100.13600034179687C78.43700188598632,102.07100034179687,77.53300188598632,103.84700034179687,76.29400188598632,105.28900034179688C73.77100188598632,108.21000034179687,70.02200188598633,109.59400034179687,66.48200188598634,109.96100034179688C64.69300188598632,110.18200034179688,62.916001885986326,110.09400034179687,61.184001885986326,109.93500034179688C59.432901885986325,109.72100034179687,57.73220188598633,109.37900034179688,56.17700188598633,108.95600034179688C54.58390188598633,108.56400034179687,53.02230188598632,108.17800034179687,51.492401885986325,107.79900034179687C49.96880188598632,107.44500034179687,48.50210188598633,106.95800034179688,47.02270188598633,106.77400034179688C44.076701885986324,106.28100034179687,41.29500188598632,105.77600034179687,38.684001885986326,105.64900034179688C36.08560188598633,105.36500034179687,33.69590188598633,105.38400034179688,31.57170188598633,105.33300034179688C29.453791885986327,105.37100034179687,27.595101885986328,105.44100034179688,26.07790188598633,105.59900034179688C24.56060188598633,105.75700034179687,23.35940188598633,105.87700034179687,22.55650188598633,106.02800034179688Q21.741000885986328,106.14200034179687,21.317401885986328,106.25000034179688L21.317401885986328,106.23700034179687Z" fill="#CF9E76" fill-opacity="1"/></g><g><path d="M81.04799786376952,71.8136978149414Q79.30899786376953,77.5793978149414,77.36199786376953,83.29449781494141C76.38200786376953,86.15209781494141,75.38300786376954,88.99699781494141,74.46700786376954,91.1274978149414C74.23899786376953,91.66489781494141,74.03699786376953,92.1516978149414,73.84699786376953,92.58789781494141C73.65799786376954,93.0240978149414,73.37899786376953,93.4476978149414,73.19599786376953,93.7763978149414Q72.79799786376952,94.4401978149414,72.56999786376953,94.8195978149414L70.48999786376953,92.89769781494141Q70.67400386376953,92.6447978149414,70.98300186376953,92.20859781494141C71.14099886376952,91.96829781494141,71.35600286376953,91.7596978149414,71.57800786376953,91.37409781494141C71.79900786376953,90.9820978149414,72.04499786376954,90.54589781494141,72.31699786376953,90.0653978149414C73.41699786376954,88.1687978149414,74.74499786376953,85.4565978149414,76.04099786376953,82.7570978149414Q78.63300786376954,77.3392078149414,81.04199786376952,71.8136978149414L81.04799786376952,71.8136978149414Z" fill="#CF9E76" fill-opacity="1"/></g><g><path d="M94.99399914550781,67.502197265625Q92.03499914550781,75.543797265625,87.92599914550782,83.123897265625C86.9149991455078,85.020497265625,85.81399914550781,86.879197265625,84.73299914550782,88.605097265625C83.63999914550782,90.318397265625,82.52699914550782,91.873597265625,81.5159991455078,93.175897265625C81.0159991455078,93.827097265625,80.49099914550781,94.383397265625,80.06099914550781,94.90179726562499C79.63799914550782,95.42659726562499,79.20199914550781,95.837497265625,78.85399914550781,96.18519726562499Q78.15199914550782,96.874297265625,77.74799914550782,97.272597265625L75.94599914550781,95.085197265625Q76.33100114550781,94.762797265625,77.01399914550781,94.193797265625C77.35599914550781,93.909297265625,77.77899914550781,93.574197265625,78.21499914550782,93.118997265625C78.65799914550782,92.670197265625,79.18299914550781,92.195997265625,79.70699914550781,91.620697265625C80.76299914550782,90.476397265625,81.95199914550781,89.079297265625,83.1529991455078,87.505097265625C84.34099914550781,85.918197265625,85.56799914550781,84.192297265625,86.71199914550782,82.40949726562499Q91.37199914550781,75.290897265625,94.99399914550781,67.514801065625L94.99399914550781,67.502197265625Z" fill="#CF9E76" fill-opacity="1"/></g><g><path d="M108.51700268554688,66.91419982910156Q107.66300268554687,67.02799982910156,106.49400268554687,67.88149982910156C105.32400268554687,68.70959982910156,103.85100268554687,70.16999982910156,102.41600268554687,72.16779982910157C100.96800268554688,74.15289982910156,99.50800268554687,76.63109982910156,98.13000268554687,79.38119982910156C96.79600268554688,82.13759982910156,95.40500268554688,85.17219982910156,93.83100268554688,88.09929982910157C90.71400268554687,93.96609982910157,87.02800268554688,99.63699982910157,83.09600268554688,103.10799982910157C81.15500268554688,104.84599982910157,79.11300268554687,105.97199982910156,77.50700268554688,106.42699982910156C76.71100268554687,106.65399982910156,76.04100268554687,106.74899982910156,75.58599868554687,106.78699982910156Q75.12400068554687,106.80599982910157,74.88400268554688,106.82499982910156L74.93399808554688,103.99299982910156L75.41500068554687,103.99299982910156C75.73100268554687,103.97999982910156,76.19899268554687,103.93599982910156,76.79900268554688,103.79699982910157C77.98800268554687,103.52499982910156,79.70700268554688,102.72799982910156,81.53500268554687,101.24899982910156C85.23300268554688,98.31569982910156,89.15300268554688,92.96719982910156,92.49100268554687,87.34059982910156C94.19800268554687,84.52729982910157,95.67100268554688,81.61289982910156,97.21900268554688,78.88809982910156C98.78700268554687,76.18859982910156,100.41800268554687,73.76729982910156,102.01800268554688,71.85169982910156C103.59800268554687,69.91709982910156,105.18500268554688,68.52629982910156,106.41800268554687,67.76129882910156Q107.65700268554687,66.97740172910156,108.51700268554688,66.91419982910156Z" fill="#CF9E76" fill-opacity="1"/></g><g><path d="M62.22000168945313,94.94599914550781Q65.41900168945313,97.86679914550781,60.866996689453124,101.11599914550781Q58.705201689453126,98.5052991455078,62.22000168945313,94.94599914550781Z" fill="#F5E0CD" fill-opacity="1"/></g></g><g><g><g><path d="M62.00599957275391,61.818799841308596C61.99299957275391,58.40489984130859,61.49399957275391,55.33239984130859,60.962997572753906,52.082899841308596C60.696998572753905,50.470699841308594,60.43199957275391,48.839699841308594,60.222999572753906,47.138999841308596L62.05699957275391,46.911399841308594C62.26499957275391,48.580499841308594,62.52399957275391,50.18619984130859,62.783999572753906,51.779399841308596C63.30199957275391,54.95309984130859,63.838999572753906,58.24049984130859,63.851999572753904,61.806099841308594L62.00599957275391,61.806099841308594L62.00599957275391,61.818799841308596Z" fill="#59B300" fill-opacity="1"/></g><g><path d="M100.33100305175782,32.38949966430664C89.51400305175781,35.77169966430664,61.55100205175781,34.97519966430664,61.42500305175781,67.15429966430665L61.42500305175781,90.69109966430665L63.864993051757814,90.69109966430665L63.864993051757814,67.28699966430665C100.6970030517578,65.94039966430664,97.9470030517578,34.77919966430664,100.33700305175782,32.38949966430664L100.33100305175782,32.38949966430664Z" fill="#59B300" fill-opacity="1"/></g><g><path d="M33.797401428222656,40.91790008544922C39.171101428222656,41.859901085449216,54.86230142822266,41.859901085449216,58.92740142822265,67.28710008544923Q41.447001428222656,68.48830008544923,33.797401428222656,40.91790008544922Z" fill="#59B300" fill-opacity="1"/></g><g><path d="M46.637000673828126,13Q39.20860067382812,40.0709,60.29299067382813,47.4487C60.46999067382812,47.5119,60.63399067382812,47.5815,60.81699067382813,47.6447C60.80499067382813,47.6068,60.797990673828124,47.5625,60.785990673828124,47.5246C60.797990673828124,47.5435,60.80499067382813,47.5688,60.81699067382813,47.5815C61.126990673828125,47.9292,61.404990673828124,47.6953,61.57599067382813,47.3855C61.57599067382813,47.4108,61.57599067382813,47.4424,61.57599067382813,47.4677C72.04499067382812,23.2354,52.706100673828125,16.2369,46.637000673828126,13Z" fill="#59B300" fill-opacity="1"/></g><g><path d="M63.23900220947266,74.79769916992187L61.393002209472655,74.74079916992187C61.44300220947265,73.17929916992188,60.640002209472655,71.54819916992187,60.03299220947265,70.45449916992187C59.647702209472655,69.77169916992187,59.20520220947266,69.07629916992188,58.705702209472655,68.39989916992188C58.446502209472655,68.04579916992188,58.15570220947266,67.74239916992188,57.864898209472656,67.43259916992187C57.58670020947265,67.14179916992188,57.30850220947266,66.84459916992188,57.055702209472656,66.52849916992187L58.503402209472654,65.37789916992188C58.72470220947265,65.65609716992188,58.96489220947266,65.90899616992188,59.211502209472656,66.16819716992188C59.552902209472656,66.52849916992187,59.89420220947265,66.89519916992188,60.204002209472655,67.31249916992188C60.74800220947266,68.05209916992187,61.235002209472654,68.81079916992188,61.652002209472656,69.56309916992187C62.366002209472654,70.84649916992187,63.308002209472654,72.78729916992188,63.24500220947266,74.80409916992187L63.23900220947266,74.79769916992187Z" fill="#59B300" fill-opacity="1"/></g><g><path d="M62.97299956796875,63.221900634765625Q62.96600341796875,62.53280063476562,62.99800111796875,61.325300634765625C62.98500061796875,60.71840063476563,63.10500341796875,59.99130063476562,63.23200241796875,59.144200634765625C63.31999941796875,58.284400634765625,63.54199941796875,57.342400634765625,63.85099841796875,56.33720063476562C64.08500341796875,55.30040063476562,64.57800341796874,54.26360063476562,65.02700341796876,53.13830063476563C65.58400341796874,52.069900634765624,66.09600341796875,50.87500063476563,66.86699341796876,49.80030063476563C67.56199341796875,48.67490063476562,68.39100341796875,47.58120063476562,69.26899341796874,46.512800634765625C69.71800341796875,45.98170063476562,70.21100341796875,45.488600634765625,70.67900341796874,44.96390063476562C70.93800341796874,44.698400634765626,71.11499341796875,44.45810063476563,71.44400341796874,44.180000634765626L72.20900341796874,43.48460063476563C73.18300341796875,42.56790063476562,74.45300341796874,41.70170063476562,75.61000341796876,40.949400634765624C76.21700341796875,40.60170063476563,76.81200341796875,40.254000634765625,77.40600341796875,39.912600634765624C78.02500341796875,39.62810063476562,78.63900341796875,39.34360063476562,79.23900341796875,39.06550063476563C80.52900341796875,38.50910063476562,81.67300341796874,38.24990063476562,82.81700341796875,37.86430063476563C83.91700341796874,37.516600634765624,85.05500341796875,37.16250063476563,86.05400341796874,36.92230063476563C88.05200341796875,36.397600634765624,89.74000341796875,36.037200634765625,90.91000341796875,35.752700634765624Q92.08600341796875,35.48089963476563,92.76200341796874,35.354400634765625Q92.13000341796875,35.638900634765626,91.01100341796875,36.100398634765625C89.88500341796875,36.53660063476563,88.29900341796875,37.21940063476563,86.35800341796875,37.94010063476563C85.37800341796876,38.29420063476562,84.42300341796874,38.71770063476563,83.29200341796874,39.160300634765626C82.23000341796875,39.615500634765624,80.95900341796874,40.039100634765624,79.90900341796875,40.551100634765625C79.35300341796875,40.84190063476562,78.78400341796875,41.13280063476562,78.21500341796875,41.42990063476562C77.67100341796875,41.77130063476562,77.11500341796875,42.11270063476562,76.55900341796875,42.46040063476563C75.47100341796875,43.20640063476563,74.44700341796874,43.88920063476563,73.42900341796874,44.86910063476562L72.65799341796875,45.55190063476562C72.45600341796874,45.709900634765624,72.20300341796874,46.013400634765624,71.97500341796875,46.23460063476563C71.51999341796875,46.72140063476563,71.04000341796875,47.18930063476562,70.61000341796876,47.68240063476563C69.76899341796874,48.70020063476562,68.90300341796875,49.667500634765624,68.20099341796875,50.710600634765626C67.43000341796875,51.709500634765625,66.86100341796875,52.784200634765625,66.24099341796875,53.75780063476563C65.75399341796874,54.80100063476563,65.16600341796875,55.73660063476562,64.83799341796875,56.691300634765625C64.45200341796875,57.626900634765626,64.09800341796876,58.486700634765626,63.89600341796875,59.283300634765624C63.64900241796875,60.07350063476562,63.42099741796875,60.762600634765626,63.34600041796875,61.369600634765625Q63.11799641796875,62.55810063476562,62.96600341796875,63.22820063476563L62.97299956796875,63.221900634765625Z" fill="#8CBF26" fill-opacity="1"/></g><g><path d="M48.26170349121094,15.206500053371094Q48.36289949121094,15.288700105371094,48.53990149121094,15.440400505371093C48.70429949121094,15.617400505371094,49.02040149121094,15.781800505371093,49.36810349121094,16.003000505371094C50.12670349121094,16.413995505371094,51.28360349121094,17.027205505371093,52.55439349121094,17.823795505371095C53.19920349121094,18.222095505371094,53.90730349121094,18.632995505371092,54.621693491210934,19.132405505371093C55.32340349121094,19.663495505371095,56.07570349121094,20.226195505371095,56.82810349121094,20.839395505371094C57.20739349121094,21.142895505371094,57.593003491210936,21.452595505371093,57.98500349121094,21.762395505371096C58.43390349121094,22.211295505371094,58.674103491210936,22.514695505371094,59.015503491210936,22.912995505371093C59.69190349121094,23.602095505371096,60.24200349121094,24.569405505371094,60.81700349121094,25.492355505371094C61.399003491210934,26.421655505371092,61.69000349121094,27.407955505371092,62.13200349121094,28.349955505371092C62.48000349121094,29.317155505371094,62.70800349121094,30.303455505371094,62.96700349121094,31.239055505371095C63.13100349121094,32.2000555053711,63.283003491210934,33.1230555053711,63.39000349121093,34.001755505371094C63.447003491210936,34.886855505371095,63.47300349121094,35.72135550537109,63.49800349121094,36.49265550537109C63.46600349121094,37.263955505371094,63.40300349121094,37.972055505371095,63.346003491210936,38.585255505371094C63.32100349121094,39.20485550537109,63.17500349121094,39.742155505371095,63.10600349121094,40.17845550537109Q62.935003491210935,41.05715550537109,62.81500349121094,41.543955505371095Q62.777003491210934,41.0318555053711,62.752003491210935,40.15315550537109C62.73300349121094,39.71055550537109,62.764003491210936,39.185855505371094,62.66300349121094,38.5789555053711C62.587003491210936,37.972055505371095,62.51200349121093,37.2955555053711,62.44200349121094,36.5558555053711C62.30300349121094,35.82255550537109,62.158003491210934,35.038655505371096,62.03100349121094,34.204055505371095C61.82900349121094,33.388555505371095,61.61400349121094,32.528755505371095,61.39300349121093,31.637355505371094C61.09500349121094,30.777555505371094,60.779003491210936,29.892455505371096,60.47000349121094,28.988455505371093C60.05200349121094,28.147655505371095,59.73620349121094,27.192955505371096,59.230403491210936,26.42805550537109C58.756303491210936,25.637755505371096,58.36430349121094,24.81590550537109,57.656193491210935,24.063605505371093C57.35910349121094,23.696895505371096,57.06829349121094,23.336595505371093,56.77749349121094,22.976195505371095C56.42980349121094,22.660105505371092,56.08210349121094,22.350405505371093,55.74070349121094,22.040595505371094C55.057903491210936,21.433705505371094,54.419403491210936,20.814095505371093,53.799793491210934,20.232495505371094C53.136003491210936,19.682505505371093,52.51010349121094,19.157695505371095,51.928493491210936,18.677295505371095C50.777903491210935,17.690995505371095,49.823303491210936,16.869195505371096,49.15940049121094,16.293895505371093C48.463996491210935,15.668000505371094,48.293296791210935,15.187500005371094,48.26170349121094,15.206500053371094Z" fill="#8CBF26" fill-opacity="1"/></g><g><path d="M36.0282974118164,42.4225997652832Q36.521400111816405,42.498401665283204,37.374902111816404,42.6753996652832C38.22200211181641,42.8713986652832,39.44220211181641,43.098998665283204,40.88360211181641,43.4657006652832C41.066902111816404,43.509900665283205,41.25030211181641,43.554200665283204,41.433602111816406,43.6048006652832C41.74340211181641,43.6870006652832,41.831902111816404,43.7502006652832,42.046802111816405,43.8260006652832C42.413502111816406,43.977800665283205,42.79280211181641,44.1421006652832,43.18480211181641,44.3065006652832C43.576802111816406,44.4709006652832,43.97500211181641,44.64160066528321,44.38600211181641,44.8123006652832C44.790602111816405,45.0083006652832,45.188902111816404,45.299100665283206,45.5998021118164,45.5456006652832C46.409002111816406,46.076700665283205,47.33200211181641,46.557200665283204,48.04010211181641,47.25890066528321C48.773502111816406,47.9417006652832,49.626902111816406,48.529600665283205,50.2655021118164,49.3388006652832C50.91030211181641,50.1417006652832,51.63100211181641,50.830800665283206,52.2000021118164,51.7223006652832C52.743702111816404,52.525100665283205,53.249502111816405,53.334400665283205,53.74260211181641,54.1183006652832C54.185102111816406,54.9781006652832,54.5771021118164,55.8189006652832,54.94380211181641,56.609200665283204C55.361002111816404,57.3805006652832,55.51270211181641,58.2086006652832,55.75930211181641,58.9167006652832C55.961602111816404,59.643700665283205,56.22710211181641,60.2823006652832,56.27140211181641,60.901800665283204C56.35990211181641,61.5087006652832,56.43580211181641,62.0335006652832,56.49900211181641,62.4697006652832Q56.61280211181641,63.3358006652832,56.65700211181641,63.822600665283204Q56.4547021118164,63.35480066528321,56.151302111816406,62.5519006652832C55.999502111816405,62.15360066528321,55.822502111816405,61.6605006652832,55.6139021118164,61.1041006652832C55.443202111816404,60.5351006652832,55.05120211181641,59.9662006652832,54.76670211181641,59.3024006652832C54.41900211181641,58.663800665283205,54.16610211181641,57.9115006652832,53.704602111816406,57.2287006652832C53.27470211181641,56.527000665283204,52.81960211181641,55.80000066528321,52.389702111816405,55.0287006652832C51.846002111816404,54.2827006652832,51.28960211181641,53.5051006652832,50.727002111816404,52.7211006652832C50.24020211181641,51.97510066528321,49.506802111816405,51.3050006652832,48.91250211181641,50.5843006652832C48.34360211181641,49.8193006652832,47.55330211181641,49.269300665283204,46.889502111816405,48.611800665283205C46.2257021118164,47.935400665283204,45.47339211181641,47.454900665283205,44.77160211181641,46.9302006652832C44.411302111816404,46.677300665283205,44.08249211181641,46.4054006652832,43.71580211181641,46.1652006652832C43.330202111816405,45.950200665283205,42.94460211181641,45.735300665283205,42.57790211181641,45.5267006652832C42.20490211181641,45.3180006652832,41.85090211181641,45.1157006652832,41.49680211181641,44.919800665283205C41.351402111816405,44.837600665283205,41.104892111816405,44.673200665283204,41.0416021118164,44.6669006652832C40.86460211181641,44.591000665283204,40.6876021118164,44.521500665283206,40.51690211181641,44.451900665283205C39.14499211181641,43.8893006652832,38.03240211181641,43.3518986652832,37.24210211181641,43.0041996652832Q36.45819811181641,42.64379866528321,36.015602111816406,42.4099006652832L36.0282974118164,42.4225997652832Z" fill="#8CBF26" fill-opacity="1"/></g><g><path d="M47.74390136962891,17.943700790405273Q42.79380136962891,37.12470079040527,59.351091369628904,44.66690079040527Q58.8895913696289,30.878600790405272,47.74390136962891,17.943700790405273Z" fill="#8CBF26" fill-opacity="1"/></g><g><path d="M77.6909975,53.656800756835935C76.7229975,53.41030075683594,75.7369975,53.258500756835936,74.7129975,53.34700075683594C73.5809975,53.44820075683594,72.2279975,54.099400756835934,71.1539995,54.06140075683594C70.288002,54.036100756835935,69.9649965,53.66310075683594,70.7549975,52.82860075683594C74.3649975,49.01639975683594,79.5999975,49.97740173683594,84.2209875,50.43889975683594C85.7319875,50.59059875683594,88.0209875,51.07110075683594,87.6479875,53.08780075683594C87.4459875,54.19420075683594,86.1559875,54.72520075683594,85.1059875,54.940200756835935C82.4379875,55.483900756835936,80.1179975,54.27000075683594,77.6909975,53.65050075683594L77.6909975,53.656800756835935Z" fill="#8CBF26" fill-opacity="1"/></g><g><path d="M90.74001743164062,46.55749552612305C90.06401743164062,46.69660552612305,89.34301743164062,46.69660552612305,88.69199743164063,46.665005526123046C87.46499743164063,46.60810552612305,86.32099743164062,46.36780552612305,85.15099743164062,46.12760552612305C83.75399743164063,45.84310552612305,82.24299743164063,45.539595526123044,80.80799743164063,45.59019552612305C80.41599743164062,45.602905526123045,78.59500143164063,46.08330552612305,78.83599853164063,45.198195526123044C78.99400343164062,44.61659552612305,80.76399743164062,43.97809552612305,81.27599743164062,43.76950552612305C82.30000743164062,43.35850152612305,83.41299743164062,43.200500526123044,84.49999743164062,43.10570152612305C86.26399743164063,42.947601526123044,88.05299743164062,42.91600052612305,89.84901743164062,42.73899842612305C90.62001743164062,42.66310122612305,91.73901743164062,42.53039952612305,92.45301743164063,42.890701526123046C93.56001743164063,43.45339952612305,93.02201743164062,45.223495526123045,92.21301743164062,45.89369552612305C91.79001743164062,46.241405526123046,91.28401743164062,46.443695526123044,90.74001743164062,46.55120552612305L90.74001743164062,46.55749552612305Z" fill="#8CBF26" fill-opacity="1"/></g><g><path d="M77.77303719482421,59.07479850097656C78.69003719482421,59.37819850097656,79.35403719482422,59.74489850097656,78.90503719482422,60.12419850097656C78.29803719482422,60.642698500976564,77.43203719482422,60.38979850097656,76.72403719482422,60.48459850097656C76.11703719482422,60.56679850097656,75.57303719482422,60.71219850097656,74.94699719482422,60.75009850097656C73.22099719482422,60.857598500976565,71.48299719482422,61.07259850097656,69.83299719482422,61.622598500976565C69.01099719482421,61.894398500976564,65.62200119482422,64.49909850097656,65.41400146482422,62.65309850097656C65.22399919482422,60.996698500976564,68.44199719482422,58.764999500976565,69.72499719482423,58.23400150097656C71.35600719482422,57.557498500976564,73.03199719482421,57.91790010097656,74.68199719482422,58.322498500976565C74.95400719482421,58.39199850097656,76.58503719482422,58.676498500976564,77.76703719482421,59.06849850097656L77.77303719482421,59.07479850097656Z" fill="#8CBF26" fill-opacity="1"/></g><g><path d="M37.767601013183594,45.45100021362305C40.808501013183594,46.304500213623044,49.29260101318359,46.99360021362305,55.058301013183595,63.85450021362305Q45.771301013183596,63.87340021362304,37.767601013183594,45.45100021362305Z" fill="#8CBF26" fill-opacity="1"/></g><g><path d="M63.35900115966797,64.53079905395508Q63.54299915966797,63.83539905395508,63.90899615966797,62.63419905395508C64.30100215966797,61.44569905395508,64.79400115966797,59.71339905395508,65.61600115966797,57.71569905395508C65.98900115966796,56.69779905395508,66.51400115966797,55.64209905395508,67.03900115966798,54.51669905395508C67.63900115966797,53.42299905395508,68.22700115966796,52.234499053955076,69.03000115966798,51.11549905395508C69.75700115966796,49.95219905395508,70.66800115966797,48.852199053955076,71.61000115966797,47.75219905395508C72.11500115966797,47.23379905395508,72.62100115966797,46.70899905395508,73.13300115966797,46.18429905395508C73.72700115966796,45.58369905395508,74.24600115966797,45.23599905395508,74.80200115966797,44.74289905395508C75.84500115966797,43.807199053955074,77.20500115966797,43.054899053955076,78.43100115966797,42.25829905395508C79.70200115966797,41.58189905395508,80.96600115966797,40.92439905395508,82.21800115966798,40.41229905395508C84.71500115966796,39.331199053955075,87.09200115966797,38.553599053955075,89.10900115966797,37.84559905395508C90.11400115966796,37.49149905395508,91.04300115966797,37.16279905395508,91.85900115966797,36.878299053955075C92.68700115966797,36.60009905395508,93.38300115966797,36.31560105395508,93.95800115966797,36.06909905395508Q95.10900115966797,35.59489805395508,95.78500115966797,35.34199905395508Q95.19100115966796,35.734001053955076,94.11600115966797,36.39149905395508C93.58500115966797,36.72659905395508,92.92100115966797,37.11219905395508,92.14400115966797,37.50419905395508C91.36600115966797,37.90879905395508,90.49300115966797,38.39559905395508,89.51400115966797,38.82549905395508C87.57900115966797,39.76109905395508,85.26500115966797,40.72839905395508,82.90100115966797,41.89169905395508C81.69300115966797,42.43539905395508,80.54300115966797,43.156099053955074,79.34100115966797,43.79459905395508C78.22900115966797,44.553199053955076,77.06600115966796,45.17909905395508,75.98400115966797,46.17169905395508C75.46600115966797,46.614199053955076,74.79600115966797,47.08199905395508,74.39800115966797,47.49929905395508C73.91100115966796,47.98609905395508,73.42400115966797,48.472899053955075,72.93700115966797,48.95339905395508C72.05200115966797,49.98379905395508,71.11000115966797,50.95739905395508,70.37700115966797,52.03849905395508C69.57400115966797,53.07529905395508,68.91600115966797,54.15639905395508,68.25900115966797,55.16789905395508C67.67700115966797,56.22999905395508,67.05800115966797,57.19729905395508,66.59000115966796,58.15189905395508C65.59700115966797,60.02949905395508,64.79400115966797,61.62899905395508,64.25700415966797,62.76069905395508Q63.71299715966797,63.89229905395508,63.37799835966797,64.52449905395508L63.35900115966797,64.53079905395508Z" fill="#63992E" fill-opacity="1"/></g><g><path d="M66.2030029296875,58.449099992675784Q66.3229979296875,58.15819999267578,66.5510029296875,57.65879999267578C66.6389999296875,57.39959999267578,66.9179989296875,57.16569999267578,67.1959989296875,56.84329999267578C67.4800029296875,56.50189999267578,67.8720029296875,56.31219999267578,68.2959929296875,56.01509999267578C68.7380029296875,55.81280099267578,69.2310029296875,55.54090099267578,69.7750029296875,55.40819899267578C70.3190029296875,55.24380099267578,70.9000029296875,55.11099999267578,71.5070029296875,55.05409999267578C72.1140029296875,55.00360109267578,72.7399929296875,54.93399809267578,73.3789929296875,54.97829819267578L73.8590029296875,54.99719999267578L74.3649929296875,55.06050109267578L75.2750029296875,55.18690099267578C75.8690029296875,55.269099992675784,76.4890029296875,55.42710099267578,77.1090029296875,55.60419799267578C77.7470029296875,55.76219899267578,78.2850029296875,55.95819899267578,78.8350029296875,56.11619999267578C79.3850029296875,56.27429999267578,79.9160029296875,56.470299992675784,80.3900029296875,56.57769999267578C80.8770029296875,56.685199992675784,81.3320029296875,56.87489999267578,81.7680029296875,56.92549999267578C82.2040029296875,57.00129999267578,82.6090029296875,57.08979999267578,82.96900292968749,57.16569999267578C83.3360029296875,57.19729999267578,83.6520029296875,57.22889999267578,83.9170029296875,57.25419999267578Q84.4610029296875,57.31739999267578,84.7710029296875,57.35539999267578Q84.4860029296875,57.462799992675784,83.9550029296875,57.62089999267578C83.6900029296875,57.69039999267578,83.3610029296875,57.804199992675784,82.9820029296875,57.87379999267578C82.6020029296875,57.91169999267578,82.1660029296875,57.95589999267578,81.6790029296875,57.98119999267578C81.1930029296875,58.03809999267578,80.6810029296875,57.968599992675784,80.12400292968749,57.924299992675785C79.5550029296875,57.89269999267578,79.0120029296875,57.804199992675784,78.4490029296875,57.68409999267578C77.88000292968749,57.57029999267578,77.2730029296875,57.47549999267578,76.7420029296875,57.33639999267578C76.1920029296875,57.19729999267578,75.6230029296875,57.070899992675784,75.0030029296875,57.00129999267578L74.0990029296875,56.84329999267578L73.7070029296875,56.77369999267578L73.2839929296875,56.74209999267578C72.7210029296875,56.69149999267578,72.1579929296875,56.65989999267578,71.6210029296875,56.65989999267578C71.0840029296875,56.67259999267578,70.5590029296875,56.67259999267578,70.0720029296875,56.73579999267578C69.5790029296875,56.77369999267578,69.1429929296875,56.89379999267578,68.7190029296875,56.96969999267578C68.3529929296875,57.13409999267578,67.9100029296875,57.19729999267578,67.6449929296875,57.37429999267578C67.3730029296875,57.55769999267578,67.0439989296875,57.627199992675784,66.8669969296875,57.848499992675784Q66.4690019296875,58.22149999267578,66.2220001296875,58.42379999267578L66.2030029296875,58.449099992675784Z" fill="#63992E" fill-opacity="1"/></g><g><path d="M71.74800109863281,49.90190051025391Q72.00700409863282,49.686900510253906,72.46199809863282,49.30130051025391C72.70200309863282,49.12420051025391,72.9550010986328,48.871400510253906,73.32200109863281,48.669100510253905C73.67600109863281,48.45410051025391,74.08700109863281,48.201200510253905,74.54800109863281,47.948400510253904C75.01600109863281,47.739700510253904,75.54100109863282,47.51210051025391,76.09700109863282,47.297199510253904C76.69800109863282,47.12649951025391,77.2290010986328,46.955799510253904,78.00000109863281,46.816699510253905C78.62600109863281,46.77880101025391,79.24500109863281,46.671299010253904,79.92800109863282,46.6839981102539C80.63000109863282,46.74079891025391,81.38900109863282,46.772499110253904,82.06500109863282,46.873599510253904C82.7290010986328,47.000099510253904,83.38600109863282,47.12020151025391,84.0440010986328,47.2466015102539C84.36000109863281,47.30350151025391,84.67600109863281,47.373100510253906,84.98600109863281,47.448898510253905L85.40900109863281,47.543701510253904L85.87700109863282,47.61959851025391C86.48400109863282,47.689200510253904,87.11600109863281,47.891500510253906,87.61600109863281,47.885100510253906C88.14100109863281,47.885100510253906,88.64600109863281,48.01790051025391,89.12000109863281,47.97360051025391C89.59500109863282,47.942000510253905,90.03700109863281,47.93570051025391,90.44200109863282,47.9231005102539C90.84000109863281,47.866200510253904,91.1810010986328,47.81560051025391,91.46600109863282,47.77130051025391Q92.05400109863281,47.701800510253904,92.3890010986328,47.65750151025391Q92.1040010986328,47.83460051025391,91.5800010986328,48.119000510253905C91.31400109863282,48.258100510253904,90.99800109863281,48.447800510253906,90.60600109863282,48.612200510253906C90.20800109863282,48.744900510253906,89.75300109863281,48.89030051025391,89.24100109863281,49.02940051025391C88.73500109863281,49.200100510253904,88.14700109863281,49.200100510253904,87.53400109863281,49.263300510253906C86.88900109863282,49.35180051025391,86.33200109863282,49.263300510253906,85.69400109863281,49.238000510253904L85.2260010986328,49.20640051025391L84.70100109863282,49.143200510253905C84.37900109863281,49.105300510253905,84.05700109863281,49.05470051025391,83.72800109863282,48.9978005102539C83.0890010986328,48.89670051025391,82.44400109863281,48.79550051025391,81.79300109863281,48.69440051025391C81.15500109863281,48.58060051025391,80.5860010986328,48.54890051025391,79.98500109863281,48.460400510253905C79.33400109863281,48.45410051025391,78.69500109863282,48.4415005102539,78.07600109863282,48.43520051025391C77.51300109863281,48.49840051025391,76.96300109863282,48.5616005102539,76.44500109863282,48.624800510253905C75.91400109863281,48.751300510253905,75.40200109863281,48.846100510253905,74.92100109863281,48.93460051025391C74.46600109863282,49.07370051025391,74.03600109863281,49.187500510253905,73.65000109863281,49.28860051025391C73.25900109863281,49.377100510253904,72.92300109863281,49.528900510253905,72.64499709863281,49.61100051025391Q72.07599609863281,49.788100510253905,71.75399779863281,49.88920051025391L71.74800109863281,49.90190051025391Z" fill="#63992E" fill-opacity="1"/></g><g><path d="M82.83699798173828,41.35430064086914Q83.63300328173828,41.13940064086914,84.82800128173828,40.94970064086914C85.12500128173828,40.90550064086914,85.44800128173829,40.85490064086914,85.78900128173828,40.82330064086914C86.13700128173828,40.804300640869144,86.47200128173829,40.69050064086914,86.83900128173828,40.64630064086914C87.55300128173828,40.507200640869144,88.31799128173829,40.41870064086914,89.07699128173829,40.32380064086914C89.82899128173828,40.15950064086914,90.58099128173828,39.98239864086914,91.30200128173828,39.868697640869144C91.65600128173828,39.78649864086914,92.02299128173829,39.79280064086914,92.33299128173829,39.67269864086914C92.65500128173828,39.57149864086914,92.95800128173828,39.49570064086914,93.24300128173829,39.42610164086914Q94.39400128173828,39.15430064086914,95.22800128173829,39.04050064086914Q94.59600128173828,39.53359964086914,93.52700128173828,40.16580064086914C93.26200128173828,40.32380064086914,92.97100128173828,40.48820064086914,92.65500128173828,40.65260064086914C92.34500128173828,40.84220064086914,91.98500128173828,40.91810064086914,91.62399128173828,41.04450064086914C90.89101128173829,41.28480064086914,90.09500128173828,41.487100640869144,89.29800128173828,41.68940064086914C88.47600128173828,41.76530064086914,87.65400128173829,41.84110064086914,86.88300128173827,41.86640064086914C86.11200128173829,41.92960064086914,85.41600128173827,41.82850064086914,84.82200128173828,41.74630064086914Q83.62699928173828,41.56930064086914,82.83100128173828,41.36060064086914L82.83699798173828,41.35430064086914Z" fill="#63992E" fill-opacity="1"/></g><g><path d="M50.107398986816406,19.366199490874024Q50.448798986816406,19.720199520874022,51.00509598681641,20.358699520874023C51.53619898681641,21.016199520874025,52.3769989868164,21.901299520874023,53.243098986816406,23.070899520874022C54.121898986816404,24.234099520874025,55.158698986816404,25.593399520874023,56.100698986816404,27.161199520874025C56.56849898681641,27.951499520874023,57.124898986816405,28.716499520874024,57.52949898681641,29.60149952087402C57.95939898681641,30.46769952087402,58.401898986816406,31.346399520874023,58.838098986816405,32.22519952087402C59.179498986816405,33.14819952087402,59.52719898681641,34.07749952087402,59.86859898681641,34.98789952087402C60.2609989868164,35.87929952087403,60.3619989868164,36.85289952087402,60.607998986816405,37.73799952087403C60.829998986816406,38.63569952087403,61.031998986816404,39.508099520874026,61.08199898681641,40.35529952087403C61.17699898681641,41.19609952087403,61.24099898681641,41.99269952087403,61.296998986816405,42.72609952087402C61.39899898681641,43.45309952087402,61.296998986816405,44.13589952087402,61.27799898681641,44.73009952087402C61.24699898681641,45.324399520874024,61.214998986816404,45.842799520874024,61.189998986816406,46.266399520874025Q61.138998986816404,47.11349952087402,61.07599898681641,47.59399952087402Q60.9689989868164,47.11349952087402,60.829998986816406,46.278999520874024C60.759998986816406,45.86179952087402,60.683998986816405,45.35599952087402,60.58899898681641,44.78069952087402C60.47599898681641,44.205399520874025,60.430998986816405,43.547899520874026,60.241998986816405,42.85249952087402C60.070998986816406,42.15709952087403,59.88759898681641,41.40479952087402,59.723198986816406,40.608199520874024C59.59049898681641,39.80529952087402,59.28699898681641,39.00239952087402,59.0340989868164,38.15519952087402C58.74959898681641,37.32069952087402,58.553598986816404,36.42299952087402,58.180598986816406,35.57579952087403C57.83929898681641,34.716099520874025,57.49149898681641,33.837299520874026,57.14379898681641,32.96489952087403C56.3345989868164,31.257899520874023,55.563298986816406,29.531999520874024,54.6971989868164,27.964099520874022C54.26729898681641,27.180199520874023,53.906998986816404,26.389999520874024,53.483398986816404,25.681899520874023C53.07239898681641,24.96749952087402,52.705798986816404,24.278399520874025,52.364398986816404,23.646199520874024C51.67529898681641,22.362799520874024,51.10629998681641,21.300699520874023,50.707999986816404,20.554699520874024Q50.3160019868164,19.802400520874023,50.107398986816406,19.359899520874023L50.107398986816406,19.366199490874024Z" fill="#63992E" fill-opacity="1"/></g><g><path d="M50.80269621552734,36.58140182495117Q50.91649591552734,36.764701824951175,51.17569691552735,36.96699882495117C51.397002915527345,37.17559782495117,51.839500915527346,37.377898824951174,52.33890091552735,37.60550182495117C52.604500915527346,37.71300182495117,52.88260091552734,37.83310182495117,53.179800915527345,37.95960182495117C53.48320091552734,38.07970182495117,53.80560091552734,38.20610182495117,54.134400915527344,38.33260182495117C54.817200915527344,38.59180182495117,55.51890091552735,38.91420182495117,56.220700915527345,39.23660182495117C56.56200091552734,39.39470182495117,56.90340091552734,39.546401824951175,57.24480091552734,39.69810182495117C57.598900915527345,39.84980182495117,57.933900915527346,40.05850182495117,58.26900091552734,40.23550182495117C58.920200915527346,40.627501824951175,59.50810091552734,41.063701824951174,59.912700915527346,41.55680182495117C60.128000915527345,41.784401824951175,60.292000915527346,42.02460182495117,60.40000091552734,42.258501824951175C60.52000091552735,42.48610182495117,60.62700091552735,42.66950182495117,60.665000915527344,42.85280182495117Q60.76000091552734,43.200501824951175,60.78500091552734,43.39650182495117Q60.640000915527345,43.244801824951175,60.43100091552734,42.985601824951175C60.222000915527346,42.72640182495117,59.85580091552734,42.43560182495117,59.38800091552734,42.15740182495117C58.932800915527345,41.860201824951176,58.35120091552734,41.60100182495117,57.719000915527346,41.32920182495117C57.048800915527345,41.05740182495117,56.33450091552734,40.77290182495117,55.620100915527345,40.48200182495117C54.93100091552734,40.13430182495117,54.235500915527346,39.79290182495117,53.60330091552734,39.426301824951175C53.30620091552734,39.26820182495117,52.95220091552734,39.05330182495117,52.68660091552734,38.863601824951175C52.40850091552734,38.67390182495117,52.143000915527345,38.47160182495117,51.90900091552734,38.27570182495117C51.434897915527344,37.883701824951174,51.11879691552734,37.46009782495117,50.94180291552735,37.11869782495117C50.77739711552734,36.79000082495117,50.81530001552734,36.58140182495117,50.790000915527344,36.58769989495117L50.80269621552734,36.58140182495117Z" fill="#63992E" fill-opacity="1"/></g><g><path d="M47.74379731367188,20.637100219726562Q47.80709841367187,20.788799219726563,47.88919851367187,21.054300219726564C47.914497513671876,21.19969921972656,48.03459951367188,21.319900219726563,48.12319951367188,21.471599219726563C48.19899751367188,21.623300219726563,48.36340351367188,21.76870021972656,48.49620051367187,21.952100219726564C48.77430151367187,22.299800219726563,49.19160151367188,22.641200219726564,49.627801513671876,22.995200219726563C49.84270151367188,23.178500219726562,50.08930151367188,23.349200219726562,50.32950151367187,23.53260021972656C50.582401513671876,23.722200219726563,50.79740151367187,23.880300219726564,51.075501513671874,24.05100021972656C51.593901513671874,24.411300219726563,52.10600151367188,24.68320021972656,52.618101513671874,25.024600219726562C53.123901513671875,25.347000219726564,53.57270151367187,25.720000219726565,53.926801513671876,26.074000219726564C54.27450151367187,26.421700219726564,54.502101513671874,26.78840021972656,54.61590151367187,27.04760021972656Q54.742301513671876,27.30680021972656,54.79290151367188,27.458500219726563Q54.67280151367187,27.35110021972656,54.47050151367188,27.155100219726563C54.293401513671874,26.946500219726563,53.95840151367187,26.737800219726562,53.59170151367188,26.478600219726562C53.22500151367188,26.213100219726563,52.73190151367187,26.004500219726562,52.21350151367187,25.732600219726564C51.701401513671875,25.479800219726563,51.09450151367187,25.17000021972656,50.56350151367187,24.822300219726564C49.47610151367188,24.095200219726564,48.53410351367187,23.153200219726564,48.06629951367187,22.24290021972656C47.952499513671874,22.015300219726562,47.845001513671875,21.819300219726564,47.80709841367187,21.597999219726564C47.769096413671875,21.38940021972656,47.69960021367187,21.218700219726564,47.71849823367187,21.079599219726564Q47.73120121367187,20.801500219726563,47.750198413671875,20.637100219726562L47.74379731367188,20.637100219726562Z" fill="#63992E" fill-opacity="1"/></g><g><path d="M48.31880187988281,28.26129913330078Q48.47689787988281,28.41300013330078,48.742400879882815,28.678499133300782C49.00160187988281,28.96940013330078,49.41890187988281,29.26649913330078,49.931001879882814,29.61419913330078C50.96150187988281,30.315899133300782,52.548301879882814,30.85329913330078,54.128801879882815,31.592999133300783C55.66500187988281,32.29469913330078,57.27720187988281,33.14819913330078,58.14960187988281,34.21029913330078C58.38980187988281,34.444199133300785,58.55420187988281,34.71609913330078,58.67430187988281,34.962599133300785C58.81340187988281,35.19649913330078,58.91460187988281,35.40519913330078,58.95880187988281,35.60119913330078Q59.07260187988281,35.97419913330078,59.11690187988281,36.17649913330078Q59.00310187988281,35.99309913330078,58.80080187988281,35.67699913330078C58.623701879882816,35.35459913330078,58.25710187988281,34.968999133300784,57.782901879882814,34.57699913330078C56.85360187988282,33.767799133300784,55.29840187988281,33.14819913330078,53.73680187988281,32.427499133300785C52.21320187988281,31.725799133300782,50.59480187988281,30.96079913330078,49.614901879882815,30.02509913330078C49.11540187988281,29.58889913330078,48.780402879882814,29.10210013330078,48.603301879882814,28.78599913330078Q48.419997879882814,28.45100013330078,48.31880187988281,28.26129913330078Z" fill="#63992E" fill-opacity="1"/></g><g><path d="M64.17400356347656,65.95340032958984Q64.71800256347656,65.83960032958984,65.67299256347657,65.69420032958985C66.15300256347656,65.62470032958984,66.72799256347656,65.54250032958984,67.39200256347657,65.44130032958984C68.06199256347657,65.37810032958984,68.78900256347656,65.16320032958984,69.58000256347657,64.97980032958985C70.35100256347656,64.79650032958985,71.17900256347656,64.60680032958984,72.05800256347656,64.39820032958984C72.94899256347657,64.08210032958985,73.88500256347656,63.753400329589844,74.85800256347656,63.40570032958984C75.85700256347656,63.11480032958984,76.76800256347656,62.615400329589846,77.76000256347656,62.236100329589846C78.24700256347657,62.033800329589845,78.74000256347657,61.83150032958984,79.24000256347657,61.62920032958984L80.69400256347656,60.94640032958984C81.74300256347657,60.529100329589845,82.54600256347656,59.953800329589846,83.47500256347656,59.467000329589844C84.32300256347656,58.853800329589845,85.24600256347657,58.373300329589846,86.01100256347657,57.722200329589846C86.81300256347656,57.121600329589846,87.57800256347656,56.521000329589846,88.26700256347657,55.90140032958985C88.98200256347656,55.31350032958984,89.60100256347656,54.68760032958984,90.20200256347655,54.137600329589844C90.80900256347655,53.587500329589844,91.30800256347656,53.03120032958984,91.79500256347656,52.576000329589846C92.28200256347657,52.114500329589845,92.67400256347656,51.68460032958984,92.99600256347657,51.33060032958984Q93.65400256347657,50.628799329589846,94.05200256347656,50.236900329589844Q93.78700256347656,50.723701329589844,93.28100256347656,51.54550032958984C93.02800256347656,51.95650032958984,92.71800256347656,52.46220032958984,92.32600256347656,53.012200329589845C91.93400256347655,53.562300329589846,91.53600256347656,54.22610032958984,90.98600256347656,54.85200032958984C90.45500256347657,55.496800329589846,89.91100256347656,56.22380032958984,89.22200256347656,56.90030032958985C88.88700256347656,57.24800032958984,88.54600256347656,57.60840032958984,88.19200256347656,57.97500032958985C87.80600256347657,58.310100329589844,87.42000256347656,58.651500329589844,87.02200256347656,58.99920032958984C86.24400256347656,59.71990032958985,85.32800256347656,60.326800329589844,84.42400256347656,60.97800032958985C83.45000256347656,61.52170032958985,82.44500256347656,62.21710032958984,81.45200256347655,62.628000329589845L79.91000256347657,63.31710032958984C79.39100256347656,63.51940032958984,78.87300256347656,63.72180032958984,78.35500256347656,63.91770032958984C77.32400256347657,64.30340032958985,76.30600256347657,64.72700032958984,75.31400256347656,64.96720032958984C74.31500256347657,65.22640032958984,73.35399256347657,65.47930032958985,72.44300256347657,65.71950032958985C71.39399256347656,65.87760032958984,70.54100256347657,65.94080032958985,69.68699256347657,66.02930032958984C68.85299256347656,66.12410032958985,68.08799256347656,66.18730032958985,67.41700256347656,66.12410032958985C66.74700256347656,66.09880032958985,66.15899256347656,66.06720032958984,65.67900256347656,66.04830032958985Q64.71800256347656,65.99770032958985,64.16200256347656,65.94710032958984L64.17400356347656,65.95340032958984Z" fill="#63992E" fill-opacity="1"/></g><g><path d="M43.02729797363281,56.2932014465332Q43.94399997363281,56.9443014465332,45.195797973632814,58.0380014465332C45.821697973632816,58.5817014465332,46.50449797363281,59.2961014465332,47.256797973632814,59.972601446533204C47.62349797363281,60.3203014465332,48.02169797363281,60.668001446533204,48.394697973632816,61.047301446533204C48.77409797363281,61.4203014465332,49.216597973632815,61.7048014465332,49.62119797363281,62.0462014465332L50.23439797363281,62.552001446533204L50.38619797363281,62.6784014465332Q50.48099797363281,62.754301446533205,50.417797973632815,62.710001446533205L50.50629797363281,62.7606014465332L50.86029797363281,62.969201446533205C51.33450797363281,63.2221014465332,51.77699797363282,63.557201446533206,52.22589797363281,63.772101446533206C53.09829797363281,64.16410144653321,53.932797973632816,64.5624014465332,54.716797973632815,64.8468014465332C55.48169797363281,65.1629014465332,56.12659797363281,65.4285014465332,56.57539797363281,65.6118014465332Q57.02429797363281,65.80150144653321,57.27719797363281,65.9279014465332Q56.15819797363281,65.8963014465332,54.50179797363281,65.6118014465332C53.67359797363281,65.5043014465332,52.69999797363281,65.21980144653321,51.65059797363281,64.8468014465332C51.151097973632815,64.6445014465332,50.689597973632814,64.3917014465332,50.20919797363281,64.13880144653321L49.84879797363281,63.9428014465332L49.76029797363281,63.89220144653321C49.633907973632816,63.816401446533206,49.678097973632816,63.8353014465332,49.62749797363281,63.7974014465332L49.46320797363281,63.664601446533204L48.78669797363281,63.133601446533206C48.356797973632816,62.7606014465332,47.876297973632816,62.425501446533204,47.49069797363281,62.0209014465332C47.10500797363281,61.6226014465332,46.74469797363281,61.2054014465332,46.39069797363281,60.8197014465332C45.67629797363281,60.035801446533206,45.13259797363281,59.25820144653321,44.633097973632815,58.5817014465332Q43.64060197363281,57.2415004465332,43.04000087363281,56.2932014465332L43.02729797363281,56.2932014465332Z" fill="#63992E" fill-opacity="1"/></g></g><g><g><path d="M39.296602478027346,85.89290026855468C39.517902478027345,85.58310026855469,39.764502478027346,85.28590026855468,40.00470247802734,84.97620026855469C40.15010247802734,84.80550026855468,40.194392478027346,84.71060026855469,40.415602478027346,84.48300026855469L40.80760247802734,84.08480026855469C41.28810247802734,83.56000026855469,42.02140247802734,83.06690026855469,42.66630247802735,82.58010026855469C43.342692478027345,82.18820026855468,43.99389247802734,81.78350026855469,44.68300247802735,81.51800026855469C45.35949247802734,81.22720026855468,46.02960247802734,80.97430026855469,46.69970247802735,80.84160026855469C47.02850247802734,80.76570026855468,47.344592478027344,80.67720026855469,47.660702478027346,80.62030026855469C47.98310247802735,80.60130026855468,48.292902478027344,80.5760002685547,48.58370247802735,80.55710026855469C49.171602478027346,80.47490026855469,49.71530247802734,80.54440026855468,50.18950247802734,80.63290026855469C50.66360247802734,80.68350026855468,51.068202478027345,80.77200026855469,51.37800247802734,80.93640026855469Q52.010202478027345,81.21460026855469,52.33260247802734,81.37890026855469Q51.95960247802734,81.35360026855469,51.30220247802734,81.29670026855469C50.992402478027344,81.23350026855469,50.60040247802734,81.28410026855468,50.16420247802734,81.3410002685547C49.72800247802734,81.37890026855469,49.253802478027346,81.43580026855469,48.735402478027346,81.60650026855468C48.21700247802734,81.72660026855469,47.673302478027345,81.90370026855469,47.110602478027346,82.1565002685547C46.53530247802735,82.35250026855469,45.978992478027344,82.6749002685547,45.38469247802735,82.9784002685547C44.78410247802734,83.25660026855469,44.253102478027344,83.71180026855468,43.65880247802734,84.05310026855469C43.14670247802734,84.47670026855468,42.62200247802734,84.79910026855468,42.097302478027345,85.38710026855469L41.69270247802734,85.77270026855469C41.64840247802734,85.80430026855468,41.484102478027346,86.01930026855469,41.382892478027344,86.13310026855468C41.23120247802734,86.32280026855469,41.07309247802734,86.50610026855469,40.91510247802734,86.69580026855469C41.16160247802734,86.77790026855469,41.401902478027345,86.86010026855469,41.65480247802734,86.9360002685547C42.407092478027344,87.16990026855468,43.159402478027346,87.41650026855469,43.90540247802734,87.6693002685547C44.87270247802734,86.51870026855468,46.105402478027344,85.57680026855469,47.23079247802734,85.0773002685547C50.25900247802734,83.73070026855468,54.52010247802734,83.07960026855469,55.588502478027344,87.08140026855469C55.82240247802734,87.96650026855468,55.79710247802734,88.81995026855469,55.57580247802734,89.62285026855469C57.05520247802734,88.7566502685547,59.04030247802734,88.47215026855469,61.05700247802734,88.98425026855469C61.61300247802734,89.12965026855468,62.138002478027346,89.32565026855468,62.63100247802734,89.56605026855469C56.80860247802734,75.51210026855469,43.93699247802734,75.5816002685547,37.431602478027344,85.4313002685547C38.000602478027346,85.65260026855469,38.57589247802734,85.87390026855469,39.15120247802734,86.08250026855468C39.19550247802734,86.01930026855469,39.233402478027344,85.94980026855468,39.277702478027344,85.88650026855468L39.296602478027346,85.89290026855468Z" fill="#694B30" fill-opacity="1"/></g><g><path d="M78.75900311279297,99.05522075195313C78.79700311279296,100.45902075195312,78.34800311279297,101.94402075195313,77.79800311279297,103.13302075195313C77.57100311279297,103.62602075195312,77.31800311279297,104.13202075195312,77.00800311279296,104.57402075195313C76.39500311279296,105.44702075195312,75.57300311279297,106.12302075195312,74.82000311279297,106.86302075195313C75.41500311279297,107.06502075195313,76.12900311279297,106.89502075195313,76.73000311279297,106.79302075195312C77.36200311279296,106.68602075195312,78.01900311279297,106.49602075195313,78.63900311279296,106.31302075195313C79.33400311279297,106.11102075195312,79.94800311279297,105.88902075195313,80.58600311279297,105.52902075195313C81.65500311279297,104.92802075195313,82.55200311279296,104.10702075195313,83.45600311279297,103.28502075195313C84.24000311279298,102.57702075195313,84.92300311279297,101.74202075195312,85.25200311279298,100.72402075195312C85.59900311279297,99.64952075195312,85.17600311279297,98.28402075195312,84.68900311279296,97.29142075195313C84.55600311279296,97.01322075195313,84.39800311279296,96.74142075195313,84.18300311279296,96.52012075195313C83.43700311279296,95.75512075195313,82.25500311279296,95.79942075195312,81.69200311279297,94.80680075195312C81.18000311279297,93.90280075195312,81.17400311279297,92.81540075195312,80.72500311279296,91.88610075195312C80.32100311279297,91.03260075195313,79.88400311279297,90.28660075195313,79.28400311279297,89.54060075195312C78.02600311279296,87.97910075195313,76.45800311279297,86.63250075195313,74.63700311279297,85.76640275195312C70.18599311279297,83.64850075195312,66.20400311279298,86.58820075195312,63.53600311279297,90.06530075195313C64.54699311279298,90.74180075195312,65.33699311279297,91.62050075195313,65.81199311279298,92.58780075195313C66.19700311279297,92.60680075195313,66.58300311279297,92.62570075195312,66.96800311279297,92.64470075195312C66.57700311279297,92.05040075195312,66.51300311279297,91.22860075195312,67.00000311279297,90.14120075195312C68.59300311279297,86.57560075195312,76.48300311279297,87.06870075195313,75.30100311279297,90.85560075195312C75.23100311279296,91.07690075195312,75.13000311279296,91.30440075195312,75.00400311279297,91.54470075195313C74.54900311279297,92.37920075195312,73.61900311279297,93.00510075195312,72.54500311279297,93.39070075195312C73.27800311279297,93.58670075195312,74.00500311279296,93.83330075195312,74.71300311279296,94.14300075195312C74.94100311279297,93.97230075195313,75.16800311279297,93.80160075195312,75.37000311279297,93.61830075195313C75.64200311279296,93.32750075195312,75.98400311279298,93.08730075195312,76.19200311279297,92.79010075195312C76.44500311279297,92.51200075195312,76.65400311279296,92.23380075195313,76.80600311279296,91.94930075195313C77.00800311279296,91.67740075195313,77.09600311279297,91.39300075195312,77.19100311279297,91.13370075195313C77.31100311279297,90.87450075195312,77.37500311279297,90.64060075195313,77.38700311279297,90.43200075195313Q77.46300311279296,90.00210075195312,77.50100311279297,89.76190075195312Q77.60200311279297,89.98310075195313,77.74800311279297,90.41300075195312C77.83600311279297,90.63430075195312,77.90600311279297,90.90620075195312,77.88700311279297,91.22860075195312C77.89900311279297,91.55100075195313,77.91800311279297,91.94300075195312,77.78500311279296,92.32230075195312C77.73500311279297,92.52460075195313,77.68400311279296,92.73320075195312,77.62700311279296,92.94820075195312C77.54500311279297,93.14420075195312,77.43100311279296,93.34650075195313,77.33000311279297,93.55510075195312C77.14100311279297,93.94070075195313,76.47700311279297,94.35170075195313,76.42600311279297,94.78160075195312C76.38200311279297,95.21782075195313,77.29900311279297,95.76782075195312,77.63400311279297,96.12182075195312C78.39900311279297,96.94372075195312,78.71500311279297,97.96792075195313,78.74000311279298,99.04892075195312L78.75900311279297,99.05522075195313Z" fill="#694B30" fill-opacity="1"/></g><g><path d="M41.70610137939453,85.77920176269531L42.110701379394534,85.39360176269531C42.63540137939453,84.79930176269531,43.16010137939453,84.4769017626953,43.67220137939453,84.05960176269531C44.26650137939453,83.71830176269532,44.79750137939453,83.26310176269531,45.39810137939453,82.98490176269532C45.98610137939453,82.68780176269532,46.54870137939453,82.35900176269531,47.12410137939453,82.16300176269532C47.686701379394535,81.91020176269531,48.23040137939453,81.73310176269531,48.748801379394536,81.61300176269532C49.267201379394535,81.44229876269532,49.74140137939453,81.38539876269532,50.17760137939453,81.34750376269531C50.61380137939453,81.29060376269531,51.00580137939453,81.23999776269531,51.31560137939453,81.30319976269531Q51.97300137939453,81.36009976269531,52.34600137939453,81.38539876269532Q52.023601379394535,81.22109976269532,51.39140137939453,80.94290176269531C51.08160137939453,80.77220176269532,50.67700137939453,80.69000276269531,50.20290137939453,80.63939676269531C49.72870137939453,80.55090336269531,49.17870137939453,80.48139956269532,48.59710137939453,80.56359866269531C48.29989137939453,80.5824966626953,47.99019137939453,80.60150146269531,47.67410137939453,80.62680056269531C47.36430137939453,80.68370076269531,47.048201379394534,80.77220176269532,46.71310137939453,80.84809876269532C46.04300137939453,80.9807967626953,45.372901379394534,81.22740176269531,44.69640137939453,81.52449776269532C44.007301379394534,81.79000176269531,43.35610137939453,82.18830176269532,42.67970137939453,82.58660176269531C42.03480137939453,83.06710176269532,41.30150137939453,83.56650176269531,40.82100137939453,84.09130176269531L40.429001379394535,84.48950176269531C40.20780137939453,84.7235017626953,40.15720337939453,84.81830176269531,40.01809737939453,84.98269176269531C39.78420237939453,85.29239176269532,39.53130337939453,85.58320176269531,39.30999737939453,85.8994017626953C39.26580047939453,85.96260176269531,39.22779847939453,86.0321017626953,39.18360137939453,86.09530176269531C39.76519737939453,86.31030176269532,40.353201379394534,86.51260176269531,40.947401379394535,86.70860176269531C41.10550137939453,86.51890176269531,41.26350137939453,86.33560176269532,41.415301379394535,86.14590176269532C41.51640137939453,86.0321017626953,41.68080137939453,85.8172017626953,41.725001379394534,85.78560176269531L41.70610137939453,85.77920176269531Z" fill="#694B30" fill-opacity="1"/></g><g><path d="M55.59529705810547,89.62930603515625C55.81019705810547,88.82639603515625,55.84179705810547,87.97289603515625,55.607897058105465,87.08779603515625C54.54579705810547,83.08599803515625,50.27839705810547,83.73709903515625,47.25019705810547,85.08370603515625C46.12489705810547,85.58319603515625,44.885803058105466,86.52509603515625,43.92479705810547,87.67579603515625C46.194397058105466,88.45339603515625,48.43240705810547,89.31320603515626,50.695697058105466,90.10340603515625C51.77680705810547,90.48269603515625,52.87679705810547,90.80519603515626,53.98309705810547,91.08329603515625C54.39409705810547,90.49539603515625,54.94409705810547,90.00229603515625,55.59529705810547,89.62290603515625L55.59529705810547,89.62930603515625Z" fill="#785A30" fill-opacity="1"/></g><g><path d="M75.00299517578125,91.5636957421875C75.13600517578125,91.3235057421875,75.23699517578125,91.0895957421875,75.30100517578126,90.8746057421875C76.48300517578124,87.0876997421875,68.58699517578125,86.5883057421875,67.00000017578125,90.1602057421875C66.51899717578125,91.2413057421875,66.57599637578124,92.0695057421875,66.96800217578125,92.6636957421875C68.85199517578125,92.7648957421875,70.73000517578124,92.9419057421875,72.54399517578125,93.4160957421875C73.61900517578125,93.0304057421875,74.54199517578125,92.4045057421875,75.00299517578125,91.5699957421875L75.00299517578125,91.5636957421875Z" fill="#785A30" fill-opacity="1"/></g><g><path d="M55.5954984375,89.62920367578126C54.9442974375,90.00860267578125,54.3943024375,90.50170267578125,53.9833984375,91.08960267578125C57.0937984375,91.86720267578124,60.2859984375,92.28450267578125,63.484998437499996,92.48680267578125C64.2569984375,92.53740267578125,65.04099843750001,92.56900267578125,65.8179984375,92.60690267578126C65.3439984375,91.63960267578125,64.5539984375,90.76090267578125,63.5419984375,90.08439267578125C63.2639984375,89.90110267578125,62.9609984375,89.73039967578126,62.6509984375,89.57869767578126C62.1639984375,89.33840167578126,61.6389984375,89.13610067578125,61.0770084375,88.99700167578125C59.0599984375,88.48500067578125,57.074898437499996,88.76940157578125,55.5954984375,89.63559767578126L55.5954984375,89.62920367578126Z" fill="#5A4130" fill-opacity="1"/></g><g><path d="M76.59600280761718,95.17349798583984C76.67199280761719,95.09139798583985,77.15300280761718,94.00399798583985,77.34900280761718,93.56779798583985C77.44999280761719,93.35909798583984,77.55700280761718,93.16309798583984,77.6460028076172,92.96079798583985C77.70300280761718,92.74590798583985,77.7530028076172,92.53729798583984,77.80400280761718,92.33499798583985C77.93699280761719,91.95559798583984,77.9110028076172,91.56999798583985,77.9050028076172,91.24120798583985C77.92400280761719,90.91879798583984,77.85500280761718,90.64700298583985,77.76600280761718,90.42569698583985Q77.61400280761718,89.99579598583985,77.51899280761718,89.77449798583984Q77.47500280761719,90.02110298583985,77.40600280761718,90.44470198583984C77.39299280761719,90.64700298583985,77.33000280761719,90.88719798583985,77.21000280761719,91.14639798583984C77.10900280761719,91.40559798583985,77.01999280761719,91.68379798583985,76.82399280761719,91.96199798583984C76.66600280761719,92.24639798583985,76.46399280761719,92.52459798583985,76.21100280761719,92.80280798583985C76.00200280761719,93.09989798583985,75.6610028076172,93.34019798583985,75.38899980761718,93.63099798583984C75.1799998076172,93.80799798583985,74.95899980761719,93.98499798583984,74.73100280761719,94.15569798583985C74.88300280761719,94.22519798583984,75.04100080761718,94.28849798583984,75.19300080761718,94.36430798583984C75.60399580761718,94.56029798583984,76.26100280761719,94.93329798583984,76.61500280761719,95.16719798583985L76.59600280761718,95.17349798583984Z" fill="#5A4130" fill-opacity="1"/></g></g></g></g></g></g></g></svg>