<svg width="120" height="120" viewBox="0 0 120 120" fill="none" xmlns="http://www.w3.org/2000/svg">
<g id="Mask group">
<mask id="mask0_2502_27013" style="mask-type:alpha" maskUnits="userSpaceOnUse" x="0" y="0" width="120" height="120">
<rect id="Rectangle 1" width="120" height="120" rx="60" fill="white"/>
</mask>
<g mask="url(#mask0_2502_27013)">
<rect id="Rectangle 1_2" width="120" height="120" fill="#8F52CC"/>
<g id="Group">
<g id="Isolation Mode">
<g id="Group_2">
<path id="Vector" d="M87.8391 104.172C87.4969 104.177 87.1702 104.174 86.8571 104.164C74.4733 103.783 43.1704 105.216 34.7703 78.1184C27.0528 53.2319 59.8167 16.4433 65.2084 10.6128C65.6874 10.0944 65.95 9.8207 65.95 9.8207C65.95 9.8207 64.6053 8.76598 92.4934 8.54956C123.729 34.0673 128.187 53.646 128.187 53.646C137.14 93.7544 101.125 104.036 87.8383 104.172H87.8391Z" fill="url(#paint0_linear_2502_27013)"/>
<path id="Vector_2" style="mix-blend-mode:multiply" opacity="0.3" d="M87.8391 104.172C87.4969 104.177 87.1702 104.174 86.8571 104.164C74.4733 103.783 43.1704 105.216 34.7703 78.1183C27.0528 53.2318 59.8167 16.4432 65.2084 10.6127C66.5419 10.4476 67.8191 10.5502 69.0235 10.9651C69.4837 11.1251 1.59831 92.6919 87.8391 104.172Z" fill="url(#paint1_linear_2502_27013)"/>
<path id="Vector_3" d="M61.3021 -11.3823C61.3021 -11.3823 66.7682 -20.057 74.0024 -16.5763C81.2366 -13.0957 87.0697 -10.473 91.0114 -12.6791C94.954 -14.8852 97.0352 -16.6653 97.9539 -11.526C98.8726 -6.38667 83.8182 5.71653 83.8182 5.71653C83.8182 5.71653 61.4082 5.02707 61.3013 -11.3823H61.3021Z" fill="url(#paint2_linear_2502_27013)"/>
<path id="Vector_4" style="mix-blend-mode:multiply" opacity="0.2" d="M61.182 -7.5058C61.182 -7.5058 66.6489 -16.1805 73.8823 -12.7007C81.1165 -9.22004 86.9495 -6.59735 90.8913 -8.80346C94.8339 -11.0096 96.9151 -12.7897 97.8338 -7.65036C98.7525 -2.51106 83.6981 9.59215 83.6981 9.59215C83.6981 9.59215 61.2881 8.90269 61.1812 -7.50665L61.182 -7.5058Z" fill="url(#paint3_linear_2502_27013)"/>
<path id="Vector_5" d="M98.6313 2.31374C96.4577 5.33847 93.9514 7.91155 91.7838 8.93633C89.0653 10.2203 84.2724 10.9021 79.5138 11.1022C74.7525 11.2998 70.0238 11.0167 67.4439 10.37L67.4388 10.3674C66.7989 10.2075 66.2925 10.0244 65.9495 9.82254C65.9495 9.82254 57.966 -3.76395 58.0361 -9.98535C58.0558 -11.9613 58.8889 -13.194 61.0437 -13.0161C69.9947 -12.2778 70.0444 -7.27113 76.199 -8.47897C82.3537 -9.68596 87.1209 -18.8483 91.0096 -12.6765C94.8983 -6.50725 99.5424 -14.975 103.124 -12.0708C105.435 -10.1983 102.587 -3.19339 98.6296 2.3146L98.6313 2.31374Z" fill="url(#paint4_linear_2502_27013)"/>
<path id="Vector_6" d="M65.4839 9.00583C65.4839 9.00583 81.8368 14.2418 92.8169 8.34888C93.7099 9.55158 94.1813 9.94422 94.1813 9.94422C94.1813 9.94422 86.0326 16.9372 64.7534 11.111C64.7534 11.111 65.3214 9.59521 65.4839 9.00669V9.00583Z" fill="url(#paint5_linear_2502_27013)"/>
<path id="Vector_7" style="mix-blend-mode:multiply" opacity="0.2" d="M98.6313 2.313C96.4577 5.33773 93.9514 7.91081 91.7838 8.93559C89.0653 10.2196 84.2724 10.9013 79.5138 11.1015L67.4439 10.3693L67.4388 10.3667C66.7989 10.2067 66.2925 10.0237 65.9495 9.8218C65.9495 9.8218 57.966 -3.76469 58.0361 -9.98609C58.1413 -10.0922 61.5476 -13.4762 65.2737 -5.88183C69.0615 1.8314 70.3112 8.49163 75.1717 5.45236C80.0347 2.41137 87.7668 -9.87745 88.8788 -3.94347C89.9891 1.98966 85.0491 7.51475 88.552 6.68329C91.2825 6.03489 96.6254 2.14962 98.6305 2.31386L98.6313 2.313Z" fill="url(#paint6_linear_2502_27013)"/>
<g id="Group_3" opacity="0.9">
<path id="Vector_8" d="M86.1149 30.4666C87.1328 30.4614 87.9643 31.1885 87.9754 32.0919L88.0113 35.1825C90.0506 35.1987 92.0908 35.3253 94.1335 35.5614C95.6373 35.7359 97.1317 35.9694 98.615 36.2628C99.5038 36.4382 100.121 37.1704 100.049 37.9916L99.6971 41.9265C99.6038 42.9744 98.4576 43.6938 97.3575 43.3653C96.3721 43.0711 95.3636 42.8341 94.3294 42.6553C92.5245 42.3431 90.6212 42.2071 88.6187 42.2481L88.0943 42.2593L88.1995 51.2864C93.5886 52.0974 97.5517 53.5062 100.133 55.5164C102.706 57.5189 104.027 60.2109 104.106 63.6103C104.192 67.3057 102.86 70.4288 100.085 72.9865C97.278 75.5732 93.2866 77.2986 88.0755 78.1497L88.1174 81.8032C88.1285 82.7766 87.2808 83.6321 86.2218 83.7125L86.1876 83.715C85.1252 83.7955 84.2552 83.0666 84.2467 82.0881L84.2159 78.4774L83.3639 78.5364C80.8994 78.7058 78.5334 78.7383 76.2682 78.6313C74.5882 78.5518 72.9467 78.3918 71.3428 78.1497C70.3719 78.0035 69.7072 77.2456 69.7979 76.3448L70.3403 70.9651C70.4566 69.8078 71.744 69.008 72.9612 69.3082C74.3786 69.6589 75.8123 69.9284 77.2631 70.1174C79.5205 70.4117 81.8045 70.5118 84.1141 70.4194L84.0593 60.08C78.8234 59.4564 74.8919 58.1442 72.306 56.1434C69.7107 54.1358 68.4156 51.3737 68.4258 47.8768C68.437 44.2772 69.8458 41.3825 72.6319 39.196C75.3889 37.0319 79.2913 35.7316 84.3082 35.2834L84.28 32.1192C84.2723 31.2116 85.0952 30.4734 86.1157 30.4683L86.1149 30.4666ZM84.3716 42.5133C82.7796 42.764 81.5393 43.2652 80.6522 44.018C79.7626 44.7742 79.3186 45.7203 79.3246 46.858C79.3298 47.9366 79.7506 48.7997 80.5846 49.4456C81.4178 50.0906 82.7061 50.5456 84.446 50.81L84.3724 42.5133H84.3716ZM87.8745 60.5154L87.9822 69.9806C89.741 69.7975 91.0822 69.2774 92.0104 68.422C92.9351 67.57 93.385 66.4588 93.3645 65.0876C93.3457 63.8404 92.8974 62.8516 92.0189 62.1202C91.1396 61.388 89.7598 60.8533 87.8745 60.5154Z" fill="url(#paint7_linear_2502_27013)"/>
</g>
</g>
</g>
</g>
</g>
</g>
<defs>
<linearGradient id="paint0_linear_2502_27013" x1="34.0536" y1="54.6773" x2="129.871" y2="57.6216" gradientUnits="userSpaceOnUse">
<stop stop-color="#6165D7"/>
<stop offset="1" stop-color="#AA80F9"/>
</linearGradient>
<linearGradient id="paint1_linear_2502_27013" x1="29.9923" y1="55.9457" x2="89.2648" y2="57.767" gradientUnits="userSpaceOnUse">
<stop stop-color="#6165D7"/>
<stop offset="1" stop-color="#AA80F9"/>
</linearGradient>
<linearGradient id="paint2_linear_2502_27013" x1="80.0446" y1="-12.2214" x2="68.5257" y2="25.2851" gradientUnits="userSpaceOnUse">
<stop stop-color="#6165D7"/>
<stop offset="1" stop-color="#AA80F9"/>
</linearGradient>
<linearGradient id="paint3_linear_2502_27013" x1="79.9252" y1="-8.345" x2="68.4062" y2="29.1614" gradientUnits="userSpaceOnUse">
<stop stop-color="#6165D7"/>
<stop offset="1" stop-color="#AA80F9"/>
</linearGradient>
<linearGradient id="paint4_linear_2502_27013" x1="57.8069" y1="-2.54925" x2="103.692" y2="-1.13932" gradientUnits="userSpaceOnUse">
<stop stop-color="#6165D7"/>
<stop offset="1" stop-color="#AA80F9"/>
</linearGradient>
<linearGradient id="paint5_linear_2502_27013" x1="64.7807" y1="10.232" x2="94.146" y2="11.1343" gradientUnits="userSpaceOnUse">
<stop stop-color="#444B8C"/>
<stop offset="1" stop-color="#26264F"/>
</linearGradient>
<linearGradient id="paint6_linear_2502_27013" x1="57.7374" y1="-0.234578" x2="98.6718" y2="1.02323" gradientUnits="userSpaceOnUse">
<stop stop-color="#6165D7"/>
<stop offset="1" stop-color="#AA80F9"/>
</linearGradient>
<linearGradient id="paint7_linear_2502_27013" x1="78.8223" y1="31.1459" x2="91.7402" y2="86.3124" gradientUnits="userSpaceOnUse">
<stop stop-color="#EBEFF2"/>
<stop offset="1" stop-color="white"/>
</linearGradient>
</defs>
</svg>
