<svg width="120" height="120" viewBox="0 0 120 120" fill="none" xmlns="http://www.w3.org/2000/svg">
<g id="Mask group">
<mask id="mask0_2502_27185" style="mask-type:alpha" maskUnits="userSpaceOnUse" x="0" y="0" width="120" height="120">
<rect id="Rectangle 1" width="120" height="120" rx="60" fill="white"/>
</mask>
<g mask="url(#mask0_2502_27185)">
<rect id="Rectangle 1_2" width="120" height="120" fill="#F0BF3F"/>
<g id="Isolation_Mode">
<g id="Group">
<g id="Group_2">
<g id="Group_3">
<path id="Vector" d="M93.977 43.206C66.377 45.006 39.3771 20.088 39.3771 20.088C39.3771 20.088 12.3771 45 -15.2229 43.2C-15.2229 43.2 -29.6229 131.952 39.3771 147.576C108.377 131.952 93.977 43.2 93.977 43.2V43.206Z" fill="#FED724"/>
<path id="Vector_2" d="M84.4009 50.328C61.6429 51.81 39.3769 31.266 39.3769 31.266C39.3769 31.266 17.1109 51.81 -5.64712 50.328C-5.64712 50.328 -17.5211 123.516 39.3769 136.398C96.2749 123.516 84.4009 50.328 84.4009 50.328Z" fill="#FFE666"/>
<path id="Vector_3" d="M93.9769 41.706C80.7109 42.432 68.0149 37.464 56.7589 30.834C51.0109 27.45 45.3589 23.55 40.4389 19.032C39.8149 18.462 38.9389 18.462 38.3149 19.032C33.3829 23.562 27.7309 27.408 21.9949 30.834C10.8169 37.518 -2.01708 42.426 -15.2231 41.706C-15.8291 41.67 -16.5671 42.186 -16.6691 42.81C-18.0611 51.414 -18.1991 60.33 -17.8151 69.018C-17.0531 86.25 -13.3031 103.842 -4.25508 118.716C0.754922 126.954 7.51692 133.992 15.5509 139.32C20.0269 142.29 24.9229 144.588 29.9629 146.418C32.6749 147.402 35.4529 148.188 38.2549 148.86C40.8889 149.496 44.2969 147.906 46.8109 147.096C66.1069 140.91 80.7289 126.51 88.4809 107.958C94.2469 94.158 96.4969 79.092 96.7189 64.212C96.8269 57.102 96.5629 49.842 95.4289 42.804C95.1229 40.896 92.2309 41.712 92.5369 43.602C93.8089 51.504 93.9649 61.368 93.5329 69.918C92.6449 87.438 88.5289 105.336 78.5929 120.03C72.9169 128.43 65.1889 135.198 56.2369 139.926C51.0289 142.674 45.4249 144.588 39.7129 145.962C38.5249 146.25 36.6349 145.356 35.4889 145.038C34.1149 144.654 32.7649 144.216 31.4149 143.754C28.5589 142.776 25.7929 141.582 23.0989 140.226C5.24892 131.25 -5.72508 114.174 -10.8731 95.328C-14.0291 83.778 -15.1271 71.706 -14.9531 59.76C-14.8751 54.504 -14.5211 48.234 -13.7771 43.602C-14.2571 43.968 -14.7431 44.334 -15.2231 44.706C-1.71108 45.45 11.3269 40.488 22.8529 33.81C29.0509 30.222 35.1469 26.01 40.4389 21.15H38.3149C43.6129 26.022 49.7149 30.168 55.9009 33.81C67.3429 40.548 80.5309 45.444 93.9769 44.706C95.9029 44.598 95.9089 41.598 93.9769 41.706Z" fill="#EFC307"/>
</g>
<path id="Vector_4" d="M39.3648 112.452C55.1878 112.452 68.0148 99.6249 68.0148 83.802C68.0148 67.979 55.1878 55.152 39.3648 55.152C23.5419 55.152 10.7148 67.979 10.7148 83.802C10.7148 99.6249 23.5419 112.452 39.3648 112.452Z" fill="#FED724"/>
</g>
<path id="Vector_5" d="M39.3651 66.768L44.8971 77.982L57.2751 79.782L48.3231 88.512L50.4351 100.836L39.3651 95.016L28.2951 100.836L30.4131 88.512L21.4551 79.782L33.8331 77.982L39.3651 66.768Z" fill="white"/>
</g>
<path id="Vector_6" opacity="0.3" d="M21.9949 30.834C10.8169 37.518 -2.01708 42.426 -15.2231 41.706C-15.8291 41.67 -16.5671 42.186 -16.6691 42.81C-18.0611 51.414 -18.1991 60.33 -17.8151 69.018C-17.0531 86.25 -13.3031 103.842 -4.25508 118.716C0.754922 126.954 7.51692 133.992 15.5509 139.32C20.0269 142.29 24.9229 144.588 29.9629 146.418C32.6749 147.402 35.4529 148.188 38.2549 148.86C38.6209 148.95 38.9989 148.992 39.3829 148.998V18.6C39.0109 18.6 38.6329 18.744 38.3209 19.026C33.3889 23.556 27.7369 27.402 22.0009 30.828L21.9949 30.834Z" fill="white"/>
</g>
</g>
</g>
</svg>
